# xmcd CD database file
#
# Track frame offsets:
#	150
#	21734
#	41602
#	58885
#	80647
#	98091
#	116421
#	135257
#	153173
#	169184
#	188335
#	207887
#	222377
#	240837
#	259614
#	276518
#	294573
#	310326
#	342901
#
# Disc length: 4795 seconds
#
# Revision: 5
# Processed by: cddbd v1.5.2PL0 Copyright (c) Steve Scherf et al.
# Submitted via: CDex 1.70beta3
#
DISCID=1112b913
DTITLE=Pet Shop Boys - PopArt Disc 2
DYEAR=2003
DGENRE=Pop
TTITLE0=Left To My Own Devices
TTITLE1=I Don't Know What You Want But I Can't Give It Any More
TTITLE2=Flamboyant
TTITLE3=Being Boring
TTITLE4=Can You Forgive Her?
TTITLE5=West End Girls
TTITLE6=I Get Along
TTITLE7=So Hard
TTITLE8=Rent
TTITLE9=Jealousy
TTITLE10=DJ Culture
TTITLE11=You Only Tell Me You Love Me When You're Drunk
TTITLE12=Liberation
TTITLE13=Paninaro '95
TTITLE14=Opportunities (Let's Make Lots Of Money)
TTITLE15=Yesterday, When I Was Mad
TTITLE16=Single-Bilingual
TTITLE17=Somewhere
TTITLE18=Data
EXTD=YEAR: 2003
EXTT0=
EXTT1=
EXTT2=
EXTT3=
EXTT4=
EXTT5=
EXTT6=
EXTT7=
EXTT8=
EXTT9=
EXTT10=
EXTT11=
EXTT12=
EXTT13=
EXTT14=
EXTT15=
EXTT16=
EXTT17=
EXTT18=
PLAYORDER=
